<?xml version="1.0" encoding="UTF-8" standalone="no"?>
<!-- Created with Inkscape (http://www.inkscape.org/) -->

<svg
   xmlns:dc="http://purl.org/dc/elements/1.1/"
   xmlns:cc="http://creativecommons.org/ns#"
   xmlns:rdf="http://www.w3.org/1999/02/22-rdf-syntax-ns#"
   xmlns:svg="http://www.w3.org/2000/svg"
   xmlns="http://www.w3.org/2000/svg"
   xmlns:sodipodi="http://sodipodi.sourceforge.net/DTD/sodipodi-0.dtd"
   xmlns:inkscape="http://www.inkscape.org/namespaces/inkscape"
   width="511.99997"
   height="512"
   viewBox="0 0 135.46666 135.46667"
   version="1.1"
   id="svg8"
   inkscape:version="0.92.1 r15371"
   sodipodi:docname="wt-pdf-viewer.svg">
  <defs
     id="defs2" />
  <sodipodi:namedview
     id="base"
     pagecolor="#ffffff"
     bordercolor="#666666"
     borderopacity="1.0"
     inkscape:pageopacity="0.0"
     inkscape:pageshadow="2"
     inkscape:zoom="0.35"
     inkscape:cx="400"
     inkscape:cy="560"
     inkscape:document-units="px"
     inkscape:current-layer="layer1"
     showgrid="false"
     inkscape:snap-page="true"
     units="px"
     inkscape:snap-nodes="true"
     inkscape:snap-intersection-paths="true"
     inkscape:object-paths="true"
     inkscape:snap-smooth-nodes="true"
     inkscape:snap-midpoints="true"
     fit-margin-top="0"
     fit-margin-left="0"
     fit-margin-right="0"
     fit-margin-bottom="0"
     inkscape:snap-global="false"
     inkscape:window-width="1920"
     inkscape:window-height="1137"
     inkscape:window-x="-8"
     inkscape:window-y="-8"
     inkscape:window-maximized="1" />
  <metadata
     id="metadata5">
    <rdf:RDF>
      <cc:Work
         rdf:about="">
        <dc:format>image/svg+xml</dc:format>
        <dc:type
           rdf:resource="http://purl.org/dc/dcmitype/StillImage" />
        <dc:title></dc:title>
      </cc:Work>
    </rdf:RDF>
  </metadata>
  <g
     inkscape:label="Layer 1"
     inkscape:groupmode="layer"
     id="layer1"
     transform="translate(167.82144,-118.44403)">
    <g
       id="g4544"
       inkscape:export-xdpi="96"
       inkscape:export-ydpi="96">
      <rect
         y="118.44403"
         x="-167.82144"
         height="135.46667"
         width="135.46666"
         id="rect4515"
         style="opacity:1;fill:none;fill-opacity:1;fill-rule:nonzero;stroke:none;stroke-width:3.88990378;stroke-linecap:butt;stroke-linejoin:round;stroke-miterlimit:3.5;stroke-dasharray:none;stroke-dashoffset:0;stroke-opacity:1" />
      <path
         style="fill:#ffffff;stroke-width:0.19548497"
         id="path4489"
         d="m -69.073512,204.11382 c -0.410514,0.25413 -1.583424,0.41051 -2.326269,0.41051 -2.424011,0 -5.395385,-1.11426 -9.598311,-2.91273 1.622524,-0.11729 3.088658,-0.17594 4.417958,-0.17594 2.424011,0 3.127757,0 5.512676,0.60602 2.36537,0.58645 2.384919,1.81801 1.993946,2.07214 z m -42.048808,0.37142 c 0.93832,-1.64208 1.89619,-3.38189 2.87362,-5.239 2.38492,-4.5157 3.9097,-8.07353 5.02396,-10.98626 2.24808,4.08564 5.043513,7.54572 8.308113,10.32161 0.41052,0.35187 0.840586,0.6842 1.309749,1.03607 -6.666032,1.3293 -12.432842,2.93227 -17.515442,4.86758 z m 7.78029,-42.79166 c 1.3293,0 2.09169,3.33497 2.15034,6.48228 0.0587,3.12775 -0.66465,5.31719 -1.58343,6.95926 -0.76239,-2.42401 -1.11426,-6.21642 -1.11426,-8.69908 0,0 -0.0587,-4.74246 0.54735,-4.74246 z m -26.07769,60.05298 c 0.76239,-2.05259 3.73376,-6.11868 8.13216,-9.73515 0.27369,-0.21504 0.95789,-0.86013 1.58344,-1.44659 -4.59389,7.35024 -7.68256,10.26296 -9.7156,11.18174 z m 61.616859,-21.95297 c -1.329293,-1.30974 -4.300667,-1.99394 -8.796823,-2.05258 -3.049565,-0.0391 -6.705136,0.23458 -10.575738,0.76238 -1.720265,-0.99697 -3.49918,-2.07214 -4.906673,-3.38189 -3.753312,-3.51872 -6.881072,-8.3863 -8.835915,-13.74259 0.11729,-0.50825 0.23458,-0.93833 0.33232,-1.38794 0,0 2.111243,-12.02233 1.544333,-16.08841 -0.0782,-0.56691 -0.11729,-0.7233 -0.27368,-1.15337 l -0.17594,-0.48871 c -0.566913,-1.32148 -1.700713,-2.72897 -3.479633,-2.65273 l -1.03606,-0.0333 h -0.0196 c -1.97439,0 -3.59691,1.01065 -4.00743,2.51002 -1.2902,4.75029 0.0391,11.82685 2.44356,20.99509 l -0.62555,1.50523 c -1.72028,4.18338 -3.87061,8.40585 -5.76681,12.12008 l -0.25413,0.4887 c -1.99395,3.9097 -3.81196,7.23295 -5.45403,10.04794 l -1.70072,0.89922 c -0.11729,0.0782 -3.03002,1.60298 -3.71421,2.0135 -5.78636,3.46008 -9.6335,7.38933 -10.27078,10.51709 -0.20331,0.97743 -0.0508,2.24807 0.97937,2.85408 l 1.64208,0.82104 c 0.70961,0.35187 1.47199,0.5278 2.23439,0.5278 4.12474,0 8.91412,-5.1217 15.50196,-16.63576 7.62392,-2.48267 16.303453,-4.5548 23.907817,-5.68862 5.786358,3.2646 12.902008,5.53223 17.398165,5.53223 0.801487,0 1.485683,-0.0782 2.052588,-0.23458 0.860137,-0.21504 1.583432,-0.70374 2.033046,-1.38795 0.860129,-1.30974 1.055619,-3.10821 0.801487,-4.96531 -0.05867,-0.54736 -0.508263,-1.23156 -0.977427,-1.70073 z"
         inkscape:connector-curvature="0" />
      <rect
         ry="10.882007"
         y="134.7511"
         x="-151.51437"
         height="102.85254"
         width="102.85253"
         id="rect4511"
         style="opacity:1;fill:#ffffff;fill-opacity:0.3137255;fill-rule:nonzero;stroke:#ffffff;stroke-width:6.15579271;stroke-linecap:butt;stroke-linejoin:round;stroke-miterlimit:3.5;stroke-dasharray:none;stroke-dashoffset:0;stroke-opacity:1" />
      <rect
         ry="0"
         y="137.45622"
         x="-151.51437"
         height="12.529245"
         width="102.85253"
         id="rect4517"
         style="opacity:1;fill:#ffffff;fill-opacity:1;fill-rule:nonzero;stroke:none;stroke-width:5.3488903;stroke-linecap:butt;stroke-linejoin:round;stroke-miterlimit:3.5;stroke-dasharray:none;stroke-dashoffset:0;stroke-opacity:1" />
    </g>
  </g>
</svg>
